<svg width="24" height="24" viewBox="0 0 24 24" fill="none" xmlns="http://www.w3.org/2000/svg">
<path d="M22.0003 6.08014V17.1801C22.0003 18.0801 21.4503 18.8001 20.7703 18.8001H3.24025C2.56025 18.8001 2.01025 18.0701 2.01025 17.1801V6.08014C2.01025 5.18014 2.56025 4.46014 3.24025 4.46014H20.7703C21.4503 4.46014 22.0003 5.18014 22.0003 6.08014Z" fill="url(#paint0_linear_123_2217)"/>
<path d="M17.7899 6.19H6.1699C5.6099 6.19 5.1499 5.73 5.1499 5.17V4.02C5.1499 3.46 5.5999 3 6.1699 3H17.7999C18.3599 3 18.8199 3.46 18.8199 4.02V5.17C18.8099 5.73 18.3599 6.19 17.7899 6.19Z" fill="url(#paint1_linear_123_2217)"/>
<path d="M15.7199 19.3497L18.5199 21.9097C18.6599 22.0397 18.8799 22.0297 18.9999 21.8897L20.7099 20.0197C20.8399 19.8797 20.8299 19.6597 20.6899 19.5397L17.8899 16.9797C17.7499 16.8497 17.7399 16.6397 17.8699 16.4997L18.7599 15.5297C18.9399 15.3397 18.8399 15.0197 18.5799 14.9597L12.1999 13.5497C11.9399 13.4897 11.7199 13.7397 11.7999 13.9897L13.7699 20.2297C13.8499 20.4797 14.1699 20.5497 14.3499 20.3597L15.2399 19.3897C15.3599 19.2297 15.5799 19.2197 15.7199 19.3497Z" fill="url(#paint2_linear_123_2217)"/>
<defs>
<linearGradient id="paint0_linear_123_2217" x1="22.0003" y1="11.6283" x2="2.01634" y2="11.6283" gradientUnits="userSpaceOnUse">
<stop stop-color="#32C0FF"/>
<stop offset="1" stop-color="#0683FF"/>
</linearGradient>
<linearGradient id="paint1_linear_123_2217" x1="5.14567" y1="4.59321" x2="18.8121" y2="4.59321" gradientUnits="userSpaceOnUse">
<stop stop-color="#32C0FF"/>
<stop offset="1" stop-color="#0683FF"/>
</linearGradient>
<linearGradient id="paint2_linear_123_2217" x1="18.294" y1="14.6303" x2="13.4253" y2="19.9694" gradientUnits="userSpaceOnUse">
<stop stop-color="#FCFF1C"/>
<stop offset="1" stop-color="#FF9D0A"/>
</linearGradient>
</defs>
</svg>
