<svg width="20" height="20" viewBox="0 0 20 20" fill="none" xmlns="http://www.w3.org/2000/svg">
<path d="M13.8403 2.92493V9.02493C13.8403 9.41493 13.5303 9.72493 13.1403 9.72493H7.98027C7.59027 9.72493 7.28027 9.41493 7.28027 9.02493V8.05493H2.98027C2.59027 8.05493 2.28027 7.74493 2.28027 7.35493V1.25493C2.28027 0.864932 2.59027 0.554932 2.98027 0.554932H8.14027C8.53027 0.554932 8.84027 0.864932 8.84027 1.25493V2.22493H13.1403C13.5203 2.22493 13.8403 2.54493 13.8403 2.92493Z" fill="url(#paint0_linear_123_2196)"/>
<path d="M9.59 12.1849H0.7C0.31 12.1849 0 11.8749 0 11.4849V4.55486C0 4.16486 0.31 3.85486 0.7 3.85486H9.59C9.98 3.85486 10.29 4.16486 10.29 4.55486V11.4849C10.29 11.8749 9.98 12.1849 9.59 12.1849Z" fill="url(#paint1_linear_123_2196)"/>
<path d="M19.3 19.4449H0.7C0.31 19.4449 0 19.1349 0 18.7449V6.4749C0 6.0849 0.31 5.7749 0.7 5.7749H19.3C19.69 5.7749 20 6.0849 20 6.4749V18.7449C20 19.1349 19.69 19.4449 19.3 19.4449Z" fill="url(#paint2_linear_123_2196)"/>
<defs>
<linearGradient id="paint0_linear_123_2196" x1="2.27548" y1="5.14238" x2="13.8365" y2="5.14238" gradientUnits="userSpaceOnUse">
<stop stop-color="#FCFF1C"/>
<stop offset="1" stop-color="#FF9D0A"/>
</linearGradient>
<linearGradient id="paint1_linear_123_2196" x1="0" y1="8.02224" x2="10.293" y2="8.02224" gradientUnits="userSpaceOnUse">
<stop stop-color="#E7CFFF"/>
<stop offset="1" stop-color="#870FFF"/>
</linearGradient>
<linearGradient id="paint2_linear_123_2196" x1="0" y1="12.6142" x2="20" y2="12.6142" gradientUnits="userSpaceOnUse">
<stop stop-color="#03FFE5"/>
<stop offset="1" stop-color="#14B348"/>
</linearGradient>
</defs>
</svg>
