<svg width="20" height="22" viewBox="0 0 20 22" fill="none" xmlns="http://www.w3.org/2000/svg">
<path d="M16.9998 21.0599H2.97984C2.62984 21.0599 2.33984 20.7799 2.33984 20.4199V6.39989C2.33984 6.04989 2.61984 5.75989 2.97984 5.75989H16.9998C17.3498 5.75989 17.6398 6.03989 17.6398 6.39989V20.4199C17.6398 20.7699 17.3498 21.0599 16.9998 21.0599Z" fill="url(#paint0_linear_115_2130)"/>
<path d="M18.4602 14.72L5.59017 4.21997C5.13017 3.83997 5.39017 3.08997 5.99017 3.08997H18.8602C19.2102 3.08997 19.5002 3.36997 19.5002 3.72997V14.24C19.5002 14.77 18.8802 15.06 18.4602 14.72Z" fill="url(#paint1_linear_115_2130)"/>
<path d="M1.54 12.5799L14.41 2.06994C14.87 1.68994 14.61 0.939941 14.01 0.939941H1.14C0.79 0.939941 0.5 1.21994 0.5 1.57994V12.0899C0.5 12.6199 1.12 12.9199 1.54 12.5799Z" fill="url(#paint2_linear_115_2130)"/>
<defs>
<linearGradient id="paint0_linear_115_2130" x1="2.34182" y1="13.4111" x2="17.6375" y2="13.4111" gradientUnits="userSpaceOnUse">
<stop stop-color="#FF9868"/>
<stop offset="1" stop-color="#FF5403"/>
</linearGradient>
<linearGradient id="paint1_linear_115_2130" x1="5.35294" y1="8.97915" x2="19.5002" y2="8.97915" gradientUnits="userSpaceOnUse">
<stop stop-color="#03FFE5"/>
<stop offset="1" stop-color="#14B348"/>
</linearGradient>
<linearGradient id="paint2_linear_115_2130" x1="0.5" y1="6.83184" x2="14.6472" y2="6.83184" gradientUnits="userSpaceOnUse">
<stop stop-color="#FCFF1C"/>
<stop offset="1" stop-color="#FF9D0A"/>
</linearGradient>
</defs>
</svg>
